<svg width="68" height="73" viewBox="0 0 68 73" fill="none" xmlns="http://www.w3.org/2000/svg">
<path d="M31.7832 38.056H24.2952V41.368C24.6152 41.016 25.0632 40.728 25.6392 40.504C26.2152 40.28 26.8392 40.168 27.5112 40.168C28.7112 40.168 29.7032 40.44 30.4872 40.984C31.2872 41.528 31.8712 42.232 32.2392 43.096C32.6072 43.96 32.7912 44.896 32.7912 45.904C32.7912 47.776 32.2632 49.264 31.2072 50.368C30.1512 51.456 28.6632 52 26.7432 52C25.4632 52 24.3512 51.784 23.4072 51.352C22.4632 50.904 21.7352 50.288 21.2232 49.504C20.7112 48.72 20.4312 47.816 20.3832 46.792H24.3912C24.4872 47.288 24.7192 47.704 25.0872 48.04C25.4552 48.36 25.9592 48.52 26.5992 48.52C27.3512 48.52 27.9112 48.28 28.2792 47.8C28.6472 47.32 28.8312 46.68 28.8312 45.88C28.8312 45.096 28.6392 44.496 28.2552 44.08C27.8712 43.664 27.3112 43.456 26.5752 43.456C26.0312 43.456 25.5832 43.592 25.2312 43.864C24.8792 44.12 24.6472 44.464 24.5352 44.896H20.5752V34.456H31.7832V38.056ZM35.0566 43C35.0566 40.248 35.5846 38.08 36.6406 36.496C37.7126 34.912 39.4326 34.12 41.8006 34.12C44.1686 34.12 45.8806 34.912 46.9366 36.496C48.0086 38.08 48.5446 40.248 48.5446 43C48.5446 45.784 48.0086 47.968 46.9366 49.552C45.8806 51.136 44.1686 51.928 41.8006 51.928C39.4326 51.928 37.7126 51.136 36.6406 49.552C35.5846 47.968 35.0566 45.784 35.0566 43ZM44.5126 43C44.5126 41.384 44.3366 40.144 43.9846 39.28C43.6326 38.4 42.9046 37.96 41.8006 37.96C40.6966 37.96 39.9686 38.4 39.6166 39.28C39.2646 40.144 39.0886 41.384 39.0886 43C39.0886 44.088 39.1526 44.992 39.2806 45.712C39.4086 46.416 39.6646 46.992 40.0486 47.44C40.4486 47.872 41.0326 48.088 41.8006 48.088C42.5686 48.088 43.1446 47.872 43.5286 47.44C43.9286 46.992 44.1926 46.416 44.3206 45.712C44.4486 44.992 44.5126 44.088 44.5126 43Z" fill="#4B2A63"/>
<path d="M14.875 0C15.4386 0 15.9791 0.240345 16.3776 0.668163C16.7761 1.09598 17 1.67622 17 2.28125V4.5625H51V2.28125C51 1.67622 51.2239 1.09598 51.6224 0.668163C52.0209 0.240345 52.5614 0 53.125 0C53.6886 0 54.2291 0.240345 54.6276 0.668163C55.0261 1.09598 55.25 1.67622 55.25 2.28125V4.5625H59.5C61.7543 4.5625 63.9163 5.52388 65.5104 7.23515C67.1045 8.94642 68 11.2674 68 13.6875V63.875C68 66.2951 67.1045 68.6161 65.5104 70.3273C63.9163 72.0386 61.7543 73 59.5 73H8.5C6.24566 73 4.08365 72.0386 2.48959 70.3273C0.895533 68.6161 0 66.2951 0 63.875V13.6875C0 11.2674 0.895533 8.94642 2.48959 7.23515C4.08365 5.52388 6.24566 4.5625 8.5 4.5625H12.75V2.28125C12.75 1.67622 12.9739 1.09598 13.3724 0.668163C13.7709 0.240345 14.3114 0 14.875 0ZM6.5 18.25V63.875C6.5 65.0851 7 65.5 7 65.5C7.5 66 8.37283 66 9.5 66H59.5C60.6272 66 61.5 65.5 61.5 65.5C61.5 65.5 62 65.0851 62 63.875V18.25H6.5Z" fill="#4B2A63"/>
<path d="M14.875 0C15.4386 0 15.9791 0.240345 16.3776 0.668163C16.7761 1.09598 17 1.67622 17 2.28125V4.5625H51V2.28125C51 1.67622 51.2239 1.09598 51.6224 0.668163C52.0209 0.240345 52.5614 0 53.125 0C53.6886 0 54.2291 0.240345 54.6276 0.668163C55.0261 1.09598 55.25 1.67622 55.25 2.28125V4.5625H59.5C61.7543 4.5625 63.9163 5.52388 65.5104 7.23515C67.1045 8.94642 68 11.2674 68 13.6875V63.875C68 66.2951 67.1045 68.6161 65.5104 70.3273C63.9163 72.0386 61.7543 73 59.5 73H8.5C6.24566 73 4.08365 72.0386 2.48959 70.3273C0.895533 68.6161 0 66.2951 0 63.875V13.6875C0 11.2674 0.895533 8.94642 2.48959 7.23515C4.08365 5.52388 6.24566 4.5625 8.5 4.5625H12.75V2.28125C12.75 1.67622 12.9739 1.09598 13.3724 0.668163C13.7709 0.240345 14.3114 0 14.875 0ZM6.5 18.25V63.875C6.5 65.0851 7 65.5 7 65.5C7.5 66 8.37283 66 9.5 66H59.5C60.6272 66 61.5 65.5 61.5 65.5C61.5 65.5 62 65.0851 62 63.875V18.25H6.5Z" fill="#4B2A63"/>
</svg>
